<?xml version="1.0" standalone="no"?>
<!DOCTYPE svg PUBLIC "-//W3C//DTD SVG 20010904//EN"
 "http://www.w3.org/TR/2001/REC-SVG-20010904/DTD/svg10.dtd">
<svg version="1.0" xmlns="http://www.w3.org/2000/svg"
 width="882.000000pt" height="882.000000pt" viewBox="0 0 882.000000 882.000000"
 preserveAspectRatio="xMidYMid meet">
<metadata>
Created by potrace 1.14, written by Peter Selinger 2001-2017
</metadata>
<g transform="translate(0.000000,882.000000) scale(0.100000,-0.100000)"
fill="#000000" stroke="none">
<path d="M814 8603 c-32 -36 -131 -173 -181 -253 -29 -46 -138 -259 -145 -285
-3 -11 -18 -53 -32 -92 -14 -40 -28 -83 -30 -95 -3 -13 -5 -23 -7 -23 -2 0 -7
-28 -14 -80 -3 -22 -9 -62 -14 -90 -9 -48 -7 -332 3 -385 2 -14 12 -56 21 -95
9 -38 18 -77 20 -85 9 -39 61 -172 93 -235 124 -250 293 -415 512 -503 14 -5
41 -17 60 -25 116 -50 317 -73 470 -53 30 4 59 6 64 4 5 -2 10 -37 12 -78 13
-306 116 -520 316 -650 54 -36 182 -93 233 -105 6 -2 37 -10 70 -18 33 -9 83
-19 110 -23 28 -3 59 -8 70 -10 56 -11 220 -17 489 -18 l300 -1 2 -25 c0 -14
4 -65 8 -115 4 -49 9 -108 10 -130 6 -68 18 -189 22 -210 2 -11 6 -42 10 -70
3 -27 12 -95 20 -150 19 -133 23 -156 29 -185 3 -14 8 -41 11 -60 8 -56 12
-79 18 -88 3 -5 6 -25 8 -45 1 -21 6 -37 11 -37 4 0 6 -4 3 -8 -4 -7 22 -134
60 -287 3 -11 7 -30 10 -42 2 -12 8 -33 13 -45 5 -13 9 -27 10 -33 5 -28 15
-68 37 -140 13 -44 26 -89 28 -100 6 -25 104 -323 115 -350 24 -52 63 -176 58
-181 -3 -3 -11 -6 -19 -8 -18 -3 -157 -99 -193 -134 -58 -57 -96 -103 -138
-169 -56 -87 -59 -96 -40 -122 20 -29 64 -25 78 7 5 12 13 22 17 22 5 0 8 6 8
14 0 8 3 16 8 18 4 2 24 26 44 53 89 122 288 271 288 215 0 -5 5 -21 12 -37 6
-15 12 -30 13 -33 7 -21 82 -194 101 -234 8 -16 14 -31 14 -32 0 -2 -23 -16
-52 -30 -99 -50 -145 -84 -228 -166 -57 -56 -130 -163 -130 -190 0 -8 -5 -19
-11 -25 -18 -18 -2 -80 21 -86 23 -6 70 27 70 49 0 28 67 132 115 179 45 44
123 105 134 105 6 0 11 4 11 8 0 7 99 62 112 62 3 0 28 -44 56 -97 27 -54 61
-117 73 -141 23 -41 23 -44 6 -56 -42 -32 -125 -117 -163 -167 -84 -111 -162
-286 -150 -334 6 -25 45 -43 66 -30 9 6 39 67 44 90 8 42 102 200 153 255 17
19 41 46 52 59 12 13 21 21 21 16 0 -4 9 3 20 16 24 29 16 37 124 -128 41 -62
82 -123 92 -136 11 -14 26 -35 34 -47 8 -12 20 -28 25 -34 9 -9 35 -42 105
-130 85 -106 266 -297 373 -392 38 -34 157 -136 172 -146 5 -5 36 -28 67 -53
31 -25 61 -45 66 -45 6 0 12 -3 14 -7 5 -13 70 -58 128 -90 94 -52 197 -103
208 -103 6 0 12 -4 14 -8 4 -11 240 -104 321 -127 31 -9 57 -22 58 -28 5 -60
7 -114 13 -330 l7 -248 -30 -29 c-36 -32 -39 -59 -11 -85 18 -17 21 -17 57 2
20 11 46 32 57 47 20 26 21 39 19 264 -1 130 -4 265 -6 300 l-4 63 51 -7 c28
-4 64 -8 79 -9 29 -1 50 -22 40 -38 -3 -5 -7 -50 -8 -100 -2 -51 -6 -153 -10
-227 -12 -213 -9 -247 22 -276 48 -45 97 -43 114 4 6 16 2 27 -19 47 -30 28
-29 12 -16 245 4 69 7 171 8 227 0 57 3 103 6 104 3 1 23 3 45 4 22 2 72 6
110 9 39 3 79 8 90 10 11 2 38 6 60 10 111 19 306 96 355 141 9 8 21 15 26 15
5 0 17 8 26 18 9 9 30 30 47 46 17 16 31 33 31 38 0 4 6 8 13 8 8 0 19 11 25
25 8 17 16 23 25 18 6 -4 44 -29 82 -54 107 -71 292 -162 375 -184 3 -1 12 -4
20 -8 28 -11 125 -38 159 -43 19 -3 44 -9 55 -14 61 -22 236 -1 284 35 81 60
162 161 162 201 0 8 4 14 9 14 8 0 13 18 28 95 12 57 7 150 -11 210 -2 6 -6
24 -11 40 -8 32 -45 103 -76 147 -24 33 -24 45 -1 52 25 8 136 113 164 156 70
105 89 165 94 297 3 100 3 103 -32 172 -39 78 -111 158 -152 167 -15 4 -32 11
-38 15 -6 5 -40 11 -75 15 -35 3 -65 7 -67 8 -1 2 10 29 24 62 39 87 42 190 7
267 -14 31 -30 57 -34 57 -5 0 -9 5 -9 11 0 6 -14 24 -30 39 -73 68 -197 123
-305 135 -33 4 -61 8 -63 10 -2 1 -20 -1 -40 -6 -20 -4 -52 -11 -70 -14 -19
-3 -56 -17 -83 -30 -27 -14 -50 -21 -50 -15 -1 5 -2 13 -3 18 -28 104 -54 146
-115 178 -54 28 -99 46 -126 49 -11 1 -36 7 -55 12 -102 28 -235 -10 -316 -92
-47 -47 -144 -212 -144 -246 0 -6 -6 -25 -14 -42 -13 -30 -26 -74 -31 -107
-13 -80 -21 -102 -33 -84 -9 14 -82 102 -99 120 -7 7 -13 15 -13 18 0 3 -20
34 -45 69 -25 36 -45 70 -45 76 0 6 -4 11 -10 11 -5 0 -10 5 -10 11 0 6 -8 23
-18 37 -51 73 -214 392 -208 407 6 16 60 28 121 27 154 -4 230 -29 302 -101
37 -36 45 -41 63 -31 64 34 20 119 -88 172 -36 18 -70 33 -76 35 -6 1 -29 7
-52 12 -47 12 -207 16 -244 6 -43 -11 -94 -16 -87 -9 4 4 3 12 -2 18 -5 6 -23
62 -42 124 -24 83 -30 118 -23 130 12 20 166 99 209 107 55 11 195 13 230 4
19 -6 37 -10 40 -9 3 0 29 -17 58 -38 89 -66 106 -72 131 -46 23 23 20 37 -21
83 -67 77 -166 113 -308 114 -85 1 -171 -12 -220 -33 -40 -17 -60 -23 -67 -22
-5 1 -8 -2 -8 -8 0 -5 -6 -10 -13 -10 -7 0 -23 -9 -35 -20 -13 -13 -23 -16
-28 -9 -7 11 -30 108 -39 161 -3 18 -8 44 -10 58 -3 14 -7 35 -9 47 -8 42 109
137 235 190 57 25 77 27 188 28 109 1 125 3 137 20 18 25 18 28 -7 56 -19 22
-27 24 -122 24 -102 0 -206 -21 -252 -52 -11 -7 -27 -13 -37 -13 -10 0 -18 -3
-18 -7 0 -5 -18 -17 -40 -27 -22 -11 -40 -23 -40 -28 0 -4 -4 -8 -10 -8 -5 0
-19 -9 -31 -21 -25 -25 -28 -23 -35 27 -2 22 -7 50 -9 64 -8 39 -14 81 -20
125 -4 38 -11 93 -20 160 -2 17 -7 46 -10 67 -3 20 -8 54 -10 75 -4 38 -11
102 -20 181 -3 23 -7 63 -10 90 -3 26 -7 65 -10 87 -10 94 -26 253 -28 290
l-2 40 215 1 c118 1 244 4 280 8 36 4 81 9 100 11 243 25 495 129 594 246 46
55 88 115 107 153 23 46 70 176 64 176 -3 0 0 11 5 24 11 31 22 112 26 201 1
39 3 74 3 79 1 4 27 5 58 1 114 -14 308 -6 363 15 3 1 8 2 12 1 4 0 20 4 35
10 15 6 35 12 43 14 49 11 236 102 266 130 6 5 22 17 35 25 80 52 248 261 295
369 9 20 27 58 40 84 13 27 24 53 24 57 0 5 5 21 12 37 12 30 14 37 22 68 2
11 11 47 20 80 26 104 30 146 31 315 0 169 -6 238 -26 313 -6 23 -13 49 -14
59 -17 85 -127 344 -181 423 -13 20 -24 38 -24 41 0 8 -55 89 -62 92 -5 2 -8
8 -8 14 0 5 -6 16 -12 23 -7 8 -21 25 -30 37 -85 112 -100 128 -123 128 -49 0
-55 -29 -44 -190 2 -30 -10 -179 -16 -200 -2 -8 -7 -31 -11 -50 -3 -19 -7 -39
-8 -45 -1 -5 -4 -14 -8 -20 -3 -5 -9 -25 -13 -44 -19 -88 -126 -257 -214 -339
-59 -55 -275 -172 -316 -172 -7 0 -17 -5 -20 -10 -4 -6 -12 -10 -18 -9 -29 5
-163 -41 -224 -77 l-43 -25 -67 43 c-38 23 -79 53 -93 65 -14 13 -28 23 -31
23 -4 0 -20 12 -36 28 -17 15 -47 43 -69 62 -168 153 -272 340 -289 520 -5 56
-9 72 -18 88 -14 21 -53 13 -84 -15 -54 -51 -149 -203 -136 -217 4 -3 2 -6 -4
-6 -5 0 -10 -6 -10 -12 -1 -7 -8 -41 -18 -76 -9 -35 -14 -70 -11 -77 3 -8 2
-16 -3 -19 -10 -7 -1 -241 9 -241 1 0 3 -11 4 -25 2 -14 6 -36 9 -50 4 -14 9
-34 11 -45 16 -95 126 -382 163 -426 7 -8 13 -19 13 -24 0 -10 86 -150 104
-167 6 -7 23 -29 36 -48 51 -73 181 -209 250 -261 25 -19 65 -55 89 -82 24
-26 47 -47 52 -47 5 0 18 -8 30 -17 55 -45 55 -44 53 -143 -5 -220 -56 -370
-164 -480 -94 -95 -210 -149 -375 -174 -90 -14 -123 -19 -150 -22 -40 -5 -515
-8 -519 -3 -2 2 -7 38 -10 79 -6 72 -11 111 -21 156 -3 12 -7 39 -10 60 -4 21
-8 47 -11 56 -3 10 -7 30 -10 45 -6 34 -61 257 -74 298 -99 317 -185 513 -306
697 l-63 98 51 67 c53 70 143 248 153 301 6 37 -15 62 -51 62 -21 0 -29 -10
-50 -57 -40 -90 -77 -168 -85 -173 -3 -3 -14 -18 -22 -35 -9 -16 -27 -42 -40
-58 l-23 -27 -72 71 c-65 64 -71 73 -60 92 6 12 14 24 17 27 9 7 61 125 67
150 2 11 7 30 10 43 4 12 8 73 9 134 3 120 -11 192 -55 288 -42 93 -142 204
-220 246 -25 13 -48 28 -52 34 -4 5 -10 6 -14 2 -4 -4 -12 -2 -19 3 -7 5 -38
13 -71 18 -112 15 -185 4 -279 -43 -64 -31 -175 -124 -175 -146 0 -16 -14 -9
-58 30 -53 47 -120 84 -188 104 -56 16 -219 17 -245 2 -8 -5 -20 -10 -27 -11
-19 -3 -104 -46 -125 -63 -69 -57 -147 -148 -147 -170 0 -6 -3 -11 -8 -11 -6
0 -54 -109 -58 -132 -1 -5 -2 -9 -4 -10 -16 -22 -27 -218 -15 -283 9 -49 38
-150 44 -155 3 -3 16 -25 28 -50 21 -44 48 -81 89 -123 l21 -22 -44 -57 c-24
-32 -48 -58 -52 -58 -4 0 -36 25 -69 56 -69 62 -145 155 -186 225 -29 50 -52
63 -82 45 -43 -25 -21 -86 79 -216 52 -67 92 -109 166 -172 l42 -36 -27 -53
c-40 -80 -94 -228 -119 -329 -10 -41 -34 -160 -39 -195 -3 -22 -8 -51 -11 -65
-3 -14 -7 -52 -10 -85 -15 -183 -19 -269 -19 -452 -1 -174 -3 -203 -16 -204
-90 -3 -637 1 -675 6 -27 3 -69 8 -93 10 -23 2 -46 6 -50 9 -4 2 -26 7 -49 11
-60 9 -178 50 -231 81 -67 40 -144 123 -185 202 -20 38 -38 78 -40 88 -2 11
-7 26 -10 34 -20 52 -34 219 -28 326 1 14 17 32 46 51 49 32 153 124 279 248
83 82 216 244 216 264 0 6 4 11 8 11 13 0 107 178 154 290 28 66 76 208 84
245 2 11 8 43 14 70 40 198 31 368 -26 518 -10 26 -22 47 -26 47 -4 0 -8 5 -8
12 0 19 -51 89 -98 135 -38 39 -45 41 -67 31 -28 -12 -31 -22 -40 -113 -4 -32
-9 -63 -11 -67 -3 -5 -7 -21 -10 -36 -8 -44 -71 -170 -119 -238 -46 -64 -157
-180 -214 -224 -18 -14 -38 -30 -44 -36 -7 -5 -49 -36 -95 -67 -77 -52 -103
-60 -122 -38 -8 9 -100 49 -140 60 -207 59 -337 119 -433 201 -51 43 -87 83
-127 141 -42 61 -100 177 -100 201 0 8 -3 18 -7 22 -5 4 -8 11 -8 14 -1 4 -6
30 -13 57 -22 95 -24 120 -27 284 -2 170 -5 180 -48 181 -10 0 -34 -17 -53
-37z"/>
</g>
</svg>
